<svg width="70" height="13" viewBox="0 0 70 13" fill="none" xmlns="http://www.w3.org/2000/svg">
<rect width="70" height="13" rx="6.5" fill="#067BD8"/>
<path d="M10.5461 5.88385C10.521 5.78877 10.4455 5.74123 10.3448 5.71746L8.73411 5.50352L8.00428 4.1248C7.92878 3.9584 7.62678 3.9584 7.55128 4.1248L6.82144 5.47975L5.23594 5.71746C5.13527 5.71746 5.05977 5.78877 5.00944 5.88385C4.98427 5.97894 5.00944 6.07402 5.08494 6.12156L6.24261 7.19126L5.96577 8.7126C5.94061 8.80769 5.99094 8.90277 6.06644 8.95031C6.14194 8.99786 6.24261 9.02163 6.34327 8.97409L7.77778 8.26096L9.21228 8.97409C9.26261 8.97409 9.28778 8.97409 9.33811 8.97409C9.38845 8.97409 9.43878 8.95031 9.48912 8.92654C9.56462 8.879 9.61495 8.78392 9.58978 8.68883L9.31295 7.16749L10.4706 6.09779C10.5461 6.05025 10.5713 5.95517 10.5461 5.88385Z" fill="white"/>
<path d="M65.5461 5.88385C65.521 5.78877 65.4455 5.74123 65.3448 5.71746L63.7341 5.50352L63.0043 4.1248C62.9288 3.9584 62.6268 3.9584 62.5513 4.1248L61.8214 5.47975L60.2359 5.71746C60.1353 5.71746 60.0598 5.78877 60.0094 5.88385C59.9843 5.97894 60.0094 6.07402 60.0849 6.12156L61.2426 7.19126L60.9658 8.7126C60.9406 8.80769 60.9909 8.90277 61.0664 8.95031C61.1419 8.99786 61.2426 9.02163 61.3433 8.97409L62.7778 8.26096L64.2123 8.97409C64.2626 8.97409 64.2878 8.97409 64.3381 8.97409C64.3884 8.97409 64.4388 8.95031 64.4891 8.92654C64.5646 8.879 64.6149 8.78392 64.5898 8.68883L64.3129 7.16749L65.4706 6.09779C65.5461 6.05025 65.5713 5.95517 65.5461 5.88385Z" fill="white"/>
<path d="M17.806 4.83V9H17.116V5.874L15.91 9H15.31L14.098 5.874V9H13.414V4.83H14.242L15.622 8.16L16.978 4.83H17.806ZM20.5908 4.71C20.9828 4.71 21.3368 4.802 21.6528 4.986C21.9728 5.17 22.2228 5.428 22.4028 5.76C22.5868 6.088 22.6788 6.46 22.6788 6.876C22.6788 7.292 22.5868 7.666 22.4028 7.998C22.2228 8.326 21.9728 8.584 21.6528 8.772C21.3368 8.956 20.9828 9.048 20.5908 9.048C20.1948 9.048 19.8368 8.956 19.5168 8.772C19.2008 8.584 18.9508 8.326 18.7668 7.998C18.5828 7.666 18.4908 7.292 18.4908 6.876C18.4908 6.46 18.5828 6.088 18.7668 5.76C18.9508 5.428 19.2008 5.17 19.5168 4.986C19.8368 4.802 20.1948 4.71 20.5908 4.71ZM20.5908 5.346C20.3188 5.346 20.0768 5.408 19.8648 5.532C19.6528 5.656 19.4868 5.834 19.3668 6.066C19.2508 6.298 19.1928 6.568 19.1928 6.876C19.1928 7.184 19.2508 7.454 19.3668 7.686C19.4868 7.918 19.6528 8.096 19.8648 8.22C20.0768 8.344 20.3188 8.406 20.5908 8.406C20.8588 8.406 21.0968 8.344 21.3048 8.22C21.5168 8.096 21.6808 7.918 21.7968 7.686C21.9168 7.454 21.9768 7.184 21.9768 6.876C21.9768 6.568 21.9168 6.298 21.7968 6.066C21.6808 5.834 21.5168 5.656 21.3048 5.532C21.0968 5.408 20.8588 5.346 20.5908 5.346ZM26.1531 7.872C26.1531 8.08 26.1031 8.274 26.0031 8.454C25.9031 8.63 25.7511 8.772 25.5471 8.88C25.3431 8.988 25.0931 9.042 24.7971 9.042C24.5091 9.042 24.2511 8.992 24.0231 8.892C23.7951 8.788 23.6131 8.644 23.4771 8.46C23.3411 8.276 23.2631 8.064 23.2431 7.824H23.9751C23.9951 8.008 24.0731 8.166 24.2091 8.298C24.3491 8.43 24.5351 8.496 24.7671 8.496C24.9751 8.496 25.1351 8.44 25.2471 8.328C25.3631 8.216 25.4211 8.072 25.4211 7.896C25.4211 7.744 25.3791 7.62 25.2951 7.524C25.2111 7.424 25.1071 7.346 24.9831 7.29C24.8591 7.234 24.6891 7.17 24.4731 7.098C24.2091 7.014 23.9931 6.93 23.8251 6.846C23.6611 6.762 23.5211 6.64 23.4051 6.48C23.2891 6.32 23.2311 6.11 23.2311 5.85C23.2311 5.622 23.2871 5.422 23.3991 5.25C23.5111 5.078 23.6711 4.946 23.8791 4.854C24.0871 4.758 24.3271 4.71 24.5991 4.71C25.0311 4.71 25.3731 4.814 25.6251 5.022C25.8811 5.23 26.0271 5.502 26.0631 5.838H25.3251C25.2971 5.678 25.2211 5.542 25.0971 5.43C24.9771 5.314 24.8111 5.256 24.5991 5.256C24.4071 5.256 24.2531 5.306 24.1371 5.406C24.0211 5.502 23.9631 5.642 23.9631 5.826C23.9631 5.97 24.0031 6.09 24.0831 6.186C24.1631 6.278 24.2631 6.352 24.3831 6.408C24.5071 6.46 24.6751 6.522 24.8871 6.594C25.1551 6.678 25.3731 6.764 25.5411 6.852C25.7131 6.936 25.8571 7.06 25.9731 7.224C26.0931 7.388 26.1531 7.604 26.1531 7.872ZM29.5618 4.764V5.316H28.3798V9H27.6898V5.316H26.5138V4.764H29.5618ZM32.1625 7.356V9H31.4785V4.764H32.9185C33.4065 4.764 33.7725 4.88 34.0165 5.112C34.2645 5.344 34.3885 5.662 34.3885 6.066C34.3885 6.466 34.2625 6.782 34.0105 7.014C33.7585 7.242 33.3945 7.356 32.9185 7.356H32.1625ZM32.8465 6.798C33.4105 6.798 33.6925 6.554 33.6925 6.066C33.6925 5.826 33.6245 5.644 33.4885 5.52C33.3565 5.392 33.1425 5.328 32.8465 5.328H32.1625V6.798H32.8465ZM36.9502 4.71C37.3422 4.71 37.6962 4.802 38.0122 4.986C38.3322 5.17 38.5822 5.428 38.7622 5.76C38.9462 6.088 39.0382 6.46 39.0382 6.876C39.0382 7.292 38.9462 7.666 38.7622 7.998C38.5822 8.326 38.3322 8.584 38.0122 8.772C37.6962 8.956 37.3422 9.048 36.9502 9.048C36.5542 9.048 36.1962 8.956 35.8762 8.772C35.5602 8.584 35.3102 8.326 35.1262 7.998C34.9422 7.666 34.8502 7.292 34.8502 6.876C34.8502 6.46 34.9422 6.088 35.1262 5.76C35.3102 5.428 35.5602 5.17 35.8762 4.986C36.1962 4.802 36.5542 4.71 36.9502 4.71ZM36.9502 5.346C36.6782 5.346 36.4362 5.408 36.2242 5.532C36.0122 5.656 35.8462 5.834 35.7262 6.066C35.6102 6.298 35.5522 6.568 35.5522 6.876C35.5522 7.184 35.6102 7.454 35.7262 7.686C35.8462 7.918 36.0122 8.096 36.2242 8.22C36.4362 8.344 36.6782 8.406 36.9502 8.406C37.2182 8.406 37.4562 8.344 37.6642 8.22C37.8762 8.096 38.0402 7.918 38.1562 7.686C38.2762 7.454 38.3362 7.184 38.3362 6.876C38.3362 6.568 38.2762 6.298 38.1562 6.066C38.0402 5.834 37.8762 5.656 37.6642 5.532C37.4562 5.408 37.2182 5.346 36.9502 5.346ZM40.4125 7.356V9H39.7285V4.764H41.1685C41.6565 4.764 42.0225 4.88 42.2665 5.112C42.5145 5.344 42.6385 5.662 42.6385 6.066C42.6385 6.466 42.5125 6.782 42.2605 7.014C42.0085 7.242 41.6445 7.356 41.1685 7.356H40.4125ZM41.0965 6.798C41.6605 6.798 41.9425 6.554 41.9425 6.066C41.9425 5.826 41.8745 5.644 41.7385 5.52C41.6065 5.392 41.3925 5.328 41.0965 5.328H40.4125V6.798H41.0965ZM43.8922 4.764V7.278C43.8922 7.654 43.9742 7.934 44.1382 8.118C44.3062 8.302 44.5402 8.394 44.8402 8.394C45.1362 8.394 45.3662 8.302 45.5302 8.118C45.6982 7.934 45.7822 7.654 45.7822 7.278V4.764H46.4662V7.278C46.4662 7.858 46.3162 8.298 46.0162 8.598C45.7162 8.894 45.3202 9.042 44.8282 9.042C44.3402 9.042 43.9482 8.894 43.6522 8.598C43.3562 8.298 43.2082 7.858 43.2082 7.278V4.764H43.8922ZM47.9476 8.466H49.4116V9H47.2636V4.764H47.9476V8.466ZM52.4732 8.082H50.6852L50.3612 9H49.6292L51.1892 4.83H51.9752L53.5292 9H52.7972L52.4732 8.082ZM52.2812 7.554L51.5792 5.574L50.8772 7.554H52.2812ZM56.263 9L55.207 7.308H54.721V9H54.037V4.764H55.531C56.015 4.764 56.381 4.882 56.629 5.118C56.881 5.354 57.007 5.666 57.007 6.054C57.007 6.386 56.913 6.658 56.725 6.87C56.541 7.082 56.273 7.218 55.921 7.278L57.031 9H56.263ZM54.721 6.822H55.477C56.029 6.822 56.305 6.578 56.305 6.09C56.305 5.858 56.237 5.678 56.101 5.55C55.969 5.418 55.761 5.352 55.477 5.352H54.721V6.822Z" fill="white"/>
</svg>
